<?xml version="1.0" encoding="UTF-8" standalone="no"?>
<svg xmlns:dc="http://purl.org/dc/elements/1.1/" xmlns:cc="http://creativecommons.org/ns#" xmlns:rdf="http://www.w3.org/1999/02/22-rdf-syntax-ns#" xmlns:svg="http://www.w3.org/2000/svg" xmlns="http://www.w3.org/2000/svg" xmlns:xlink="http://www.w3.org/1999/xlink" xmlns:sodipodi="http://sodipodi.sourceforge.net/DTD/sodipodi-0.dtd" xmlns:inkscape="http://www.inkscape.org/namespaces/inkscape" version="1.1" id="Layer_1" x="0px" y="0px" viewBox="0 0 595.3 841.9" style="enable-background:new 0 0 595.3 841.9;" xml:space="preserve" sodipodi:docname="GoSS_logo.svg" inkscape:version="1.0.1 (c497b03c, 2020-09-10)"><metadata id="metadata159"><rdf:RDF><cc:Work rdf:about=""><dc:format>image/svg+xml</dc:format><dc:type rdf:resource="http://purl.org/dc/dcmitype/StillImage"/></cc:Work></rdf:RDF></metadata><defs id="defs157"/><sodipodi:namedview pagecolor="#ffffff" bordercolor="#666666" borderopacity="1" objecttolerance="10" gridtolerance="10" guidetolerance="10" inkscape:pageopacity="0" inkscape:pageshadow="2" inkscape:window-width="739" inkscape:window-height="480" id="namedview155" showgrid="false" inkscape:zoom="0.63071624" inkscape:cx="297.65" inkscape:cy="319.47806" inkscape:window-x="0" inkscape:window-y="23" inkscape:window-maximized="0" inkscape:current-layer="g152"/>
<style type="text/css" id="style10">
	.st0{fill:#FFFFFF;}
	.st1{fill:none;stroke:#000000;stroke-width:2;stroke-miterlimit:10;}
	.st2{clip-path:url(#SVGID_2_);fill:#BCBEC0;stroke:#BCBEC0;stroke-width:2;stroke-miterlimit:10;}
	.st3{clip-path:url(#SVGID_2_);fill-rule:evenodd;clip-rule:evenodd;fill:#D1D3D4;}
	.st4{clip-path:url(#SVGID_2_);fill:#FFFFFF;stroke:#000000;stroke-width:2.414;stroke-miterlimit:10;}
	.st5{clip-path:url(#SVGID_2_);}
	.st6{fill:#FFDFB6;}
	.st7{fill:#FFFFFF;stroke:#000000;stroke-width:2.414;stroke-miterlimit:10;}
	.st8{stroke:#000000;stroke-width:2;stroke-miterlimit:10;}
	.st9{fill:#6D6E71;}
	.st10{fill:#FFFFFF;stroke:#000000;stroke-width:2;stroke-miterlimit:10;}
	.st11{fill:#BCBEC0;}
	
		.st12{clip-path:url(#SVGID_2_);fill-rule:evenodd;clip-rule:evenodd;fill:#FFFFFF;stroke:#000000;stroke-width:1.7068;stroke-miterlimit:10;}
	.st13{fill:none;stroke:#939598;stroke-width:2;stroke-linecap:round;stroke-linejoin:round;stroke-miterlimit:10;}
</style>
<g id="g152">
	
	<g id="g110" transform="translate(-2e-4,-2e-4)">
		<defs id="defs23">
			
				<rect id="SVGID_1_" x="194.8" y="207" transform="matrix(0.1805,-0.9836,0.9836,0.1805,-62.6492,566.8593)" width="228" height="228"/>
		</defs>
		<clipPath id="SVGID_2_">
			<use xlink:href="#SVGID_1_" style="overflow:visible" id="use25" x="0" y="0" width="100%" height="100%"/>
		</clipPath>
		<path class="st2" d="m 277.6,365.1 c 0,21.7 -17.6,39.3 -39.3,39.3 -21.7,0 -39.3,-17.6 -39.3,-39.3 0,-21.7 17.6,-39.3 39.3,-39.3 21.7,0 39.3,17.6 39.3,39.3 z" clip-path="url(#SVGID_2_)" id="path28"/>
		<path class="st2" d="m 356.3,286.4 c 0,21.7 -17.6,39.3 -39.3,39.3 -21.7,0 -39.3,-17.6 -39.3,-39.3 0,-21.7 17.6,-39.3 39.3,-39.3 21.7,0 39.3,17.6 39.3,39.3 z" clip-path="url(#SVGID_2_)" id="path30"/>
		<path class="st3" d="m 451.8,583.1 c 0,0 -39.4,-76.7 -48.6,-99.2 -9.2,-22.5 -39.8,-91.4 -44.5,-107 -4.7,-15.6 -5.2,-21.1 -6.6,-28.8 -1.3,-7.7 -1.3,-17.9 12,-21.3 13.2,-3.4 115.9,149.4 115.9,149.4 l 18.1,49.2 z" clip-path="url(#SVGID_2_)" id="path32"/>
		<line class="st4" x1="6.3000002" y1="125.1" x2="478.29999" y2="125.1" clip-path="url(#SVGID_2_)" id="line34"/>
		<g class="st5" clip-path="url(#SVGID_2_)" id="g62">
			<rect x="6.3000002" y="46.400002" class="st6" width="472" height="472" id="rect36"/>
			<line class="st7" x1="6.3000002" y1="125.1" x2="478.29999" y2="125.1" id="line38"/>
			<line class="st7" x1="6.3000002" y1="203.8" x2="478.29999" y2="203.8" id="line40"/>
			<line class="st7" x1="6.3000002" y1="282.39999" x2="478.29999" y2="282.39999" id="line42"/>
			<line class="st7" x1="6.3000002" y1="361.10001" x2="478.29999" y2="361.10001" id="line44"/>
			<line class="st7" x1="6.3000002" y1="439.79999" x2="478.29999" y2="439.79999" id="line46"/>
			<line class="st7" x1="6.3000002" y1="518.40002" x2="478.29999" y2="518.40002" id="line48"/>
			<line class="st7" x1="478.29999" y1="46.400002" x2="478.29999" y2="518.40002" id="line50"/>
			<line class="st7" x1="399.60001" y1="46.400002" x2="399.60001" y2="518.40002" id="line52"/>
			<line class="st7" x1="320.89999" y1="46.400002" x2="320.89999" y2="518.40002" id="line54"/>
			<line class="st7" x1="242.3" y1="46.400002" x2="242.3" y2="518.40002" id="line56"/>
			<line class="st7" x1="163.60001" y1="46.400002" x2="163.60001" y2="518.40002" id="line58"/>
			<line class="st7" x1="84.900002" y1="46.400002" x2="84.900002" y2="518.40002" id="line60"/>
		</g>
		<line class="st4" x1="6.3000002" y1="46.400002" x2="6.3000002" y2="518.40002" clip-path="url(#SVGID_2_)" id="line64"/>
		<path class="st5" d="m 242.3,287.3 c 2.7,0 4.8,-2.2 4.8,-4.8 0,-2.7 -2.2,-4.8 -4.8,-4.8 -2.7,0 -4.8,2.2 -4.8,4.8 -0.1,2.6 2.1,4.8 4.8,4.8 z" clip-path="url(#SVGID_2_)" id="path66"/>
		<g class="st5" clip-path="url(#SVGID_2_)" id="g76">
			<path class="st8" d="m 277.5,378.7 c -9.7,19.4 -33.3,27.3 -52.8,17.6 -19.4,-9.7 -27.3,-33.3 -17.6,-52.8 9.7,-19.5 33.3,-27.3 52.8,-17.6 19.4,9.7 27.3,33.4 17.6,52.8 z" id="path68"/>
			<g id="g72">
				<path class="st9" d="m 254.6,336.5 c -19.4,-9.7 -40.7,-6.6 -47.5,7 9.7,-19.4 33.3,-27.3 52.8,-17.6 19.4,9.7 27.3,33.3 17.6,52.8 6.8,-13.6 -3.5,-32.5 -22.9,-42.2 z" id="path70"/>
			</g>
			<path class="st1" d="m 277.5,378.7 c -9.7,19.4 -33.3,27.3 -52.8,17.6 -19.4,-9.7 -27.3,-33.3 -17.6,-52.8 9.7,-19.5 33.3,-27.3 52.8,-17.6 19.4,9.7 27.3,33.4 17.6,52.8 z" id="path74"/>
		</g>
		<g class="st5" clip-path="url(#SVGID_2_)" id="g86">
			<path class="st10" d="m 285.4,265.7 c 9.3,-19.7 32.7,-28.1 52.3,-18.8 19.7,9.3 28.1,32.7 18.8,52.3 -9.3,19.7 -32.7,28.1 -52.3,18.8 -19.7,-9.2 -28.1,-32.7 -18.8,-52.3 z" id="path78"/>
			<g id="g82">
				<path class="st11" d="m 309.2,307.4 c 19.7,9.3 40.8,5.6 47.3,-8.2 -9.3,19.7 -32.7,28.1 -52.3,18.8 -19.7,-9.3 -28.1,-32.7 -18.8,-52.3 -6.5,13.7 4.2,32.4 23.8,41.7 z" id="path80"/>
			</g>
			<path class="st1" d="m 285.4,265.7 c 9.3,-19.7 32.7,-28.1 52.3,-18.8 19.7,9.3 28.1,32.7 18.8,52.3 -9.3,19.7 -32.7,28.1 -52.3,18.8 -19.7,-9.2 -28.1,-32.7 -18.8,-52.3 z" id="path84"/>
		</g>
		<path class="st12" d="m 458.9,564.8 c 0,0 -42.6,-74.9 -52.8,-97 -10.2,-22.1 -43.7,-89.6 -49.1,-105 -5.4,-15.4 -6.1,-20.9 -7.8,-28.5 -1.7,-7.7 -2,-17.8 11.1,-21.8 13.1,-4 122.2,144.3 122.2,144.3 l 20.2,48.4 z" clip-path="url(#SVGID_2_)" id="path88"/>
		<path class="st3" d="m 542,439.8 c -7.9,-8.2 -51,-52.4 -67.3,-70.7 -16.3,-18.3 -64.3,-70.6 -69.9,-78.8 -15.1,-21.9 -35.2,-26.2 -52.5,-11.9 -14.6,12.1 -17,29.9 -8.6,43.7 8.6,14.1 44.2,56.4 53.9,69.5 9.8,13.1 74.4,95.1 80.4,103.8 6.1,8.8 72,-47.4 64,-55.6 z" clip-path="url(#SVGID_2_)" id="path90"/>
		<path class="st12" d="m 540.7,415.1 c -8.5,-7.6 -54.4,-48.8 -71.9,-66 -17.5,-17.1 -68.8,-66.1 -75,-73.9 -16.6,-20.8 -36.9,-23.8 -53.2,-8.3 -13.7,13.1 -15,31 -5.6,44.2 9.6,13.4 47.9,53.3 58.5,65.8 10.6,12.4 80.6,89.9 87.2,98.1 6.5,8.2 68.5,-52.3 60,-59.9 z" clip-path="url(#SVGID_2_)" id="path92"/>
		<g class="st5" clip-path="url(#SVGID_2_)" id="g108">
			<path class="st13" d="m 381,307.8 c -19.6,18.2 -43.9,-11.6 -43.9,-11.6 0,0 0,-13.8 10.2,-22.1 11.1,-9.2 22.7,-7.4 22.7,-7.4 0,0 28,25.4 11,41.1 z" id="path94"/>
			<path class="st13" d="m 427.8,328.6 -23.5,18.1" id="path96"/>
			<path class="st13" d="m 418.5,324.7 -18.6,12.9" id="path98"/>
			<path class="st13" d="m 431.9,336.4 -20.6,17" id="path100"/>
			<path class="st13" d="m 429,461.1 20.7,-12.6" id="path102"/>
			<path class="st13" d="m 460.2,458.3 -25,16.2" id="path104"/>
			<path class="st13" d="m 393.6,393.2 8.4,-5" id="path106"/>
		</g>
	</g>
	
		<rect x="194.8" y="207" transform="matrix(0.1805,-0.9836,0.9836,0.1805,-62.6494,566.8591)" class="st1" width="228" height="228" id="rect112"/>
	<g id="g140">
		<path d="M168.7,597v3.2h-11.9v26.4H153V597H168.7z" id="path114"/>
		<path d="M187,615.8c0,7.8-5.4,11.3-10.6,11.3c-5.7,0-10.2-4.2-10.2-10.9c0-7.1,4.6-11.3,10.5-11.3    C182.9,604.9,187,609.3,187,615.8z M170.1,616c0,4.6,2.7,8.2,6.4,8.2c3.7,0,6.4-3.5,6.4-8.2c0-3.6-1.8-8.2-6.4-8.2    S170.1,612,170.1,616z" id="path116"/>
		<path d="M221.9,625.6c-1.4,0.7-4.2,1.4-7.8,1.4c-8.3,0-14.6-5.3-14.6-15c0-9.3,6.3-15.5,15.4-15.5c3.7,0,6,0.8,7,1.3L221,601    c-1.4-0.7-3.5-1.2-6-1.2c-6.9,0-11.5,4.4-11.5,12.2c0,7.2,4.2,11.9,11.4,11.9c2.3,0,4.7-0.5,6.2-1.2L221.9,625.6z" id="path118"/>
		<path d="M238.1,626.6l-0.3-2.7h-0.1c-1.2,1.7-3.5,3.2-6.5,3.2c-4.3,0-6.5-3-6.5-6.1c0-5.1,4.6-7.9,12.8-7.9v-0.4    c0-1.8-0.5-4.9-4.8-4.9c-2,0-4,0.6-5.5,1.6l-0.9-2.5c1.8-1.1,4.3-1.9,7-1.9c6.5,0,8.1,4.4,8.1,8.7v7.9c0,1.8,0.1,3.6,0.4,5.1    H238.1z M237.5,615.7c-4.2-0.1-9,0.7-9,4.8c0,2.5,1.7,3.7,3.6,3.7c2.8,0,4.5-1.8,5.1-3.6c0.1-0.4,0.2-0.8,0.2-1.2V615.7z" id="path120"/>
		<path d="M247.4,605.6c1.5-0.3,4.3-0.5,6.8-0.5c3.6,0,9.4,0.6,9.4,5.3c0,2.6-2,4.3-4.4,4.8v0.1c3.1,0.4,5.4,2.2,5.4,5.3    c0,5.6-7,6.3-11.2,6.3c-2.4,0-4.8-0.2-6-0.3V605.6z M251,624c1.1,0.1,1.9,0.2,3.1,0.2c2.6,0,6.4-0.6,6.4-3.7    c0-3.1-3.1-3.7-6.8-3.7H251V624z M251.1,614.3h2.9c2.9,0,5.8-0.8,5.8-3.3c0-2.1-1.8-3.1-5.7-3.1c-1.3,0-2.1,0.1-3,0.2V614.3z" id="path122"/>
		<path d="M271.6,616.7c0.1,5.2,3.4,7.4,7.3,7.4c2.8,0,4.4-0.5,5.9-1.1l0.7,2.8c-1.4,0.6-3.7,1.3-7.1,1.3c-6.5,0-10.4-4.3-10.4-10.7    s3.8-11.4,10-11.4c6.9,0,8.8,6.1,8.8,10c0,0.8-0.1,1.4-0.1,1.8H271.6z M282.9,613.9c0-2.5-1-6.3-5.3-6.3c-3.9,0-5.6,3.6-5.9,6.3    H282.9z" id="path124"/>
		<path d="M293.3,614.3h1.8c3.2,0,5.4-1.5,5.4-3.5c0-1.9-1.7-3.1-4.1-3.1c-1.7,0-3.6,0.6-5.1,1.5l-1-2.4c2.1-1.3,4.6-1.9,7.1-1.9    c3.2,0,7.2,1.4,7.2,5.6c0,2.6-2.4,4.3-4.8,4.8v0.1c3.2,0.3,5.8,2.2,5.8,5.3c0,4.6-4.7,6.3-9.2,6.3c-2.5,0-5-0.7-6.9-1.7l1-2.6    c1.5,0.8,3.6,1.4,5.6,1.4c3.2,0,5.2-1.5,5.2-3.6c0-2.8-3-3.6-6.2-3.6h-1.9V614.3z" id="path126"/>
		<path d="M340.5,625.6c-1.4,0.7-4.2,1.4-7.8,1.4c-8.3,0-14.6-5.3-14.6-15c0-9.3,6.3-15.5,15.4-15.5c3.7,0,6,0.8,7,1.3l-0.9,3.1    c-1.4-0.7-3.5-1.2-6-1.2c-6.9,0-11.5,4.4-11.5,12.2c0,7.2,4.2,11.9,11.4,11.9c2.3,0,4.7-0.5,6.2-1.2L340.5,625.6z" id="path128"/>
		<path d="M345.1,612.3c0-2.7-0.1-4.9-0.2-6.9h3.5l0.2,3.6h0.1c1.6-2.6,4.1-4.1,7.5-4.1c5.1,0,9,4.3,9,10.8c0,7.6-4.6,11.4-9.6,11.4    c-2.8,0-5.3-1.2-6.5-3.3h-0.1v11.5h-3.8V612.3z M348.9,617.9c0,0.6,0.1,1.1,0.2,1.6c0.7,2.7,3,4.5,5.8,4.5c4.1,0,6.4-3.3,6.4-8.2    c0-4.3-2.2-7.9-6.3-7.9c-2.6,0-5.1,1.9-5.8,4.8c-0.1,0.5-0.3,1.1-0.3,1.6V617.9z" id="path130"/>
		<path d="M386.1,598.2c-1.1,0.4-3,0.7-4.4,1c-3.4,0.5-5.9,1.7-7.5,4c-1.4,1.9-2.1,4.8-2.3,7h0.1c1.4-3.1,4.3-4.8,7.4-4.8    c5.2,0,9,3.7,9,10.5c0,6.9-3.6,11.2-9.8,11.2c-7.5,0-9.9-7.1-9.9-14.2c0-4.8,1-8.8,3.3-11.8c2.1-2.9,5-4.3,9.1-5    c1.7-0.3,3.8-0.6,5.3-1.1L386.1,598.2z M378.5,608.2c-2.3,0-3.9,1.2-4.8,2.9c-0.7,1.3-1.1,2.8-1.1,4.5c0,3.5,1.7,8.6,5.9,8.6    c4.3,0,5.8-4.1,5.8-8C384.5,612.7,383.1,608.2,378.5,608.2z" id="path132"/>
		<path d="M396.8,605.4v8.9c0,3.4,0,5.5-0.2,8.5l0.1,0c1.3-2.6,2-4.1,3.4-6.5l6.6-11h4.5v21.2h-3.7v-9c0-3.5,0.1-5.3,0.3-8.7h-0.1    c-1.4,2.7-2.3,4.4-3.5,6.6c-2,3.3-4.3,7.4-6.6,11.1h-4.4v-21.2H396.8z" id="path134"/>
		<path d="M412,632.7c1.8-0.1,3.3-0.6,4.2-1.6c1.1-1.2,1.4-2.9,1.4-8v-17.8h3.9v19.3c0,4.1-0.7,6.8-2.5,8.7    c-1.7,1.7-4.5,2.4-6.6,2.4L412,632.7z M422,599.4c0,1.3-0.9,2.4-2.4,2.4c-1.4,0-2.4-1.1-2.4-2.4c0-1.4,1-2.4,2.5-2.4    C421.1,597,422,598,422,599.4z" id="path136"/>
		<path d="M430,616.7c0.1,5.2,3.4,7.4,7.3,7.4c2.8,0,4.4-0.5,5.9-1.1l0.7,2.8c-1.4,0.6-3.7,1.3-7.1,1.3c-6.5,0-10.4-4.3-10.4-10.7    s3.8-11.4,10-11.4c6.9,0,8.8,6.1,8.8,10c0,0.8-0.1,1.4-0.1,1.8H430z M441.3,613.9c0-2.5-1-6.3-5.3-6.3c-3.9,0-5.6,3.6-5.9,6.3    H441.3z" id="path138"/>
	</g>
	<g id="g150">
		<path d="M228.9,486.1v8.8h-32.5V567H186v-80.9H228.9z" id="path142"/>
		<path d="M279.1,537.5c0,21.5-14.9,30.8-28.9,30.8c-15.7,0-27.8-11.5-27.8-29.9c0-19.4,12.7-30.8,28.8-30.8    C267.8,507.6,279.1,519.7,279.1,537.5z M233,538.1c0,12.7,7.3,22.3,17.6,22.3c10.1,0,17.6-9.5,17.6-22.6c0-9.8-4.9-22.3-17.4-22.3    C238.4,515.5,233,527,233,538.1z" id="path144"/>
		<path d="M349.3,564.3c-3.8,1.9-11.5,3.8-21.4,3.8c-22.8,0-40-14.4-40-40.9c0-25.3,17.2-42.5,42.2-42.5c10.1,0,16.4,2.2,19.2,3.6    l-2.5,8.5c-4-1.9-9.6-3.4-16.3-3.4c-19,0-31.6,12.1-31.6,33.4c0,19.8,11.4,32.5,31.1,32.5c6.4,0,12.8-1.3,17-3.4L349.3,564.3z" id="path146"/>
		<path d="M416.5,564.3c-3.8,1.9-11.5,3.8-21.4,3.8c-22.8,0-40-14.4-40-40.9c0-25.3,17.2-42.5,42.2-42.5c10.1,0,16.4,2.2,19.2,3.6    l-2.5,8.5c-4-1.9-9.6-3.4-16.3-3.4c-19,0-31.6,12.1-31.6,33.4c0,19.8,11.4,32.5,31.1,32.5c6.4,0,12.8-1.3,17-3.4L416.5,564.3z" id="path148"/>
	</g>
</g>
</svg>